/* XPM */
static char *_f37c549d1784b54933f316406aff1a8pNmuiUuPnPPVdOqq[] = {
/* columns rows colors chars-per-pixel */
"32 32 6 1 ",
"  c #9E7C59",
". c #FFA300",
"X c #FFEC27",
"o c #B08A63",
"O c #C2986D",
"+ c white",
/* pixels */
"Oo oOo oOOO OO oOOOOOO oOoo oOOO",
"o   o oOOOO oO OOOOOOo oOOo  oOO",
"o oo  OOOOo oO oOOoooo oOOo  ooo",
" oOOo oOOo   o  oo      ooo     ",
" oOOo  ooo    oo   ooooo   oo   ",
"  oo      oo oOOoo oOOOo oOOOo  ",
"o   oooo oO+......o OOOO ooooo o",
"o ooOOOo O.+........OOOo       O",
"o oOOOOO ++.++XXX....ooo   ooo o",
"  oOOOOO...+XXXXXXX...  o  oOOo ",
"O oOOOO...X+XXXXXXXX...oOo oOOO ",
"OO ooo...XXXX....XXXX...OOo OOo ",
"oo    ..XXXX......XXXX..ooo oo  ",
"    o...XXX........XXX...     oo",
"oo  o..XXX..........XXX..ooo oOO",
"OOo o..XXX..........XXX..Oo oOOO",
"OOo o..XXX..........XXX..oo oOOO",
"Oo   ..XXX..........XXX..   oOOO",
"o oo ...XXX........XXX...OOo ooo",
" oOo o..XXXX......XXXX..oooo    ",
" oo oO...XXXX....XXXX...     ooo",
"    oOO...XXXXXXXXXX...ooo ooOOo",
"oooo oOo...XXXXXXXX...OOOo oOOO ",
"oOOOo o  ....XXXX....oOOOOo oOO ",
"OOOOOo ooO..........  oOOo o oo ",
"oOOOOO oOOOO......o oo oo oOo   ",
" oOooo OOOOOO      oOOo  oOOOo  ",
" oo    oOOOOo oooo oOOO oOOOOo  ",
" o oooo oooo  oOOo OOOO OOOOOo  ",
"O oOOOo        oo  ooOo oOOOOo o",
"O OOOOOo oo ooo  oo  o   oooo oO",
"O oOOOo oOo OOO oOOOO   o    oOO"
};
