/* XPM */
static char *item_fish1703272439[] = {
/* columns rows colors chars-per-pixel */
"32 32 22 1 ",
"  c black",
". c #672F27",
"X c #72751B",
"o c #75412F",
"O c #605C48",
"+ c #64604B",
"@ c #6C6852",
"# c #7C7B6E",
"$ c #8D5529",
"% c #AB7239",
"& c #807F72",
"* c #BF8130",
"= c #848279",
"- c #878679",
"; c #87857C",
": c #87867D",
"> c #89877F",
", c #8D8B83",
"< c #8E8C83",
"1 c #939189",
"2 c #DFC882",
"3 c #FFF1E8",
/* pixels */
"XXXXXXXXXXXXXXXXXXXXXXXXXXXXXXXX",
"XX------------XXXX############XX",
"X<------------<XX=############=X",
"X<------------<XX=############=X",
"X<------------<XX=############=X",
"X<------------<XX=############=X",
"X<------------<XX=############=X",
"X<------------<XX=############=X",
"X<------------<XX=############=X",
"X<------------<XX     ########=X",
"X<------------<  $$%%% #######=X",
"X<------------ $%%%3 %$ ######=X",
"X<--------..- %%%%%33%% ######=X",
"X<-------.$$ %%%%%$%% *  #####=X",
"X@1111111.. $%%%%%$% ** > >>>,+X",
"XX@@@@@@@@@ %%%%%%*$ *.OO ++++XX",
"XXXXXXXXXX $%%%%%.o*$  XXX XXXXX",
"XX=#=#=#== %%%%*.o.2*.& && &&&XX",
"X-#=#=#=# $%%***..**.&& && &#=-X",
"X-=#=#=#= %%******..&&& &&&&=#;X",
"X-=##=#- %%%*..$..% && &&&&&#&-X",
"X-#===   %%*.$$  % && &&&&&&=&-X",
"X-=## $.$%%.$$ X  &&&&&&&&&&&&;X",
"X-#== .$$$ #  >XX>&&&&&&&&&&&&;X",
"X-#=#=  $. #=#-XX-&&&&&&&&&&&&;X",
"X-=#=#= .$ =#=-XX-&&&&&&&&&&&&;X",
"X-==&&&&  &&=#-XX;&&&&&&&&&&=#;X",
"X-=#&&&&&&&&#=-XX,&&&&&&&&&&#=;X",
"X-&&&&&&&&&&&&;XX,##&&&&&&&&=#-X",
"X-&=&&&&=#&&&=;XX=#=&&&&&&&&#=-X",
"X+<<<<>>,,,,<<+XX+<<,,,,<,<<<<+X",
"XX++++++++++++XXXX++++++++++++XX"
};
