/* XPM */
static char *bush1703270176[] = {
/* columns rows colors chars-per-pixel */
"32 32 93 2 ",
"   c #523215",
".  c #543415",
"X  c #563615",
"o  c #583615",
"O  c #553816",
"+  c #593B16",
"@  c #5A3D16",
"#  c #5B3D16",
"$  c #5C4217",
"%  c #5C4317",
"&  c #5D4417",
"*  c #5D4218",
"=  c #5E4419",
"-  c #575213",
";  c #535715",
":  c #585213",
">  c #535815",
",  c #555816",
"<  c #575B16",
"1  c #575C17",
"2  c #585B17",
"3  c #595D17",
"4  c #5C5E17",
"5  c #5B5E18",
"6  c #5C5F18",
"7  c #614719",
"8  c #624819",
"9  c #624919",
"0  c #654B1A",
"q  c #664C1A",
"w  c #674C1A",
"e  c #674D1A",
"r  c #625819",
"t  c #655B19",
"y  c #675D1A",
"u  c #685E1A",
"i  c #5D6018",
"p  c #616318",
"a  c #626418",
"s  c #636519",
"d  c #676A1A",
"f  c #686B1A",
"g  c #686A1B",
"h  c #6B6E1B",
"j  c #6C6E1B",
"k  c #6C6D1D",
"l  c #766916",
"z  c #776916",
"x  c #6D701B",
"c  c #70711B",
"v  c #71731C",
"b  c #72731D",
"n  c #74761D",
"m  c #7E731D",
"M  c #7F731D",
"N  c #78771F",
"B  c #7F741E",
"V  c #77781E",
"C  c #6F6F21",
"Z  c #707021",
"A  c #777721",
"S  c #767522",
"D  c #777622",
"F  c #787722",
"G  c #7B7A23",
"H  c #7D7C22",
"J  c #7F7E22",
"K  c #7B7B25",
"L  c #797928",
"P  c #7A7A28",
"I  c #7C7A29",
"U  c #3E734E",
"Y  c #807F23",
"T  c #7AB055",
"R  c #4D9262",
"E  c #818023",
"W  c #828123",
"Q  c #838123",
"!  c #838223",
"~  c #848324",
"^  c #878429",
"/  c #87842D",
"(  c #888529",
")  c #89872C",
"_  c #8A872D",
"`  c #88842E",
"'  c #888331",
"]  c #888431",
"[  c #8A8532",
"{  c #8C8733",
"}  c #8D8833",
"|  c #8E8833",
" . c #8F8934",
/* pixels */
"R R R R R R R R R R R R R R R R R R R R R R R R R R R R R R R R ",
"R R R R R R R R R R R R R R R R R R R R R R U R R R R R R R R R ",
"R R R R R R R R R R R R R R R R R R R R R U R U R R R R R R R R ",
"R R R R R R R R R R R R R R q q 0 R R R R R U R R R R R R R R R ",
"R R R R R R R R R R R R R w { { [ q R R R R R R R R R R R R R R ",
"R R R R R R R R R w w w R w  .{ [ q R 0 7 R R R R R R R R R R R ",
"R R R R R R R R w } { } w ~ { { E ~ 0 A A 7 R R R R R R R R R R ",
"R R R R R R R R w  . .} ~ ~ ~ ~ ~ E F A A A 7 R R R R R R R R R ",
"R R R R R 0 q q Q ~ ~ ~ ~ ~ ~ ! ~ ~ F F A A 9 R R R R R R R R R ",
"R R R R q } { } } ` / V !  .{  .Q ~ E F A t u 9 7 7 R R R R R R ",
"R R R R 0 [ } } } ^ _ V n  . .{  .Q Y n u u t x k k * R R R R R ",
"R R R R R q } } ( ^ n n n N  .{  .E n n S b t x k k = R R R R R ",
"R R R R R R q Q ( l l _ _ V b { } V N n ! Y J t k = R R R R R R ",
"R R R R 0 0 Q Q Q l ~ ) _ ) m z N N N { } [ J j = R R R R R R R ",
"R R R 9 / ` [ } Q ! ~ ` _ ( Y Y M N n { [ [ x x x = = R R R R R ",
"T R R 9 [ [ { { Q Q } } ! Y Y z M { { { [ v x x k x k = R R R R ",
"R T R 7 [ [ { v v { { { Q Q Q M [ { [ Y J J J h h h h ; $ R R T ",
"T R R R 9 G G x v { { k Q Q Q Q { { [ Y J J J h h h < > % R R R ",
"R R R 7 n K G [ { { f f [ { { Q Q J Q J [ ' G h r r ; = R R R R ",
"R R 7 d A G K [ [ / d d { [ [ b J J x ' ' ' h h < ; = R R R R R ",
"R R * g g g g [ [ x f f [ [ x x x x x [ ' h k k < ; ; $ R R R R ",
"R R = Z Z g a a x x x x x x t b x x j 1 < h k ; ; < ; < $ R R R ",
"R R = C Z d a x x x x x h x 3 5 x j j : - < < < 1 3 3 3 $ R R R ",
"R R R % = i a L L L i h x 5 3 < j j - - - < ; ; 4 3 3 $ R R R R ",
"R R R R R % I L L L i r r 1 3 3 r - - : a a < > 3 4 # R R R R R ",
"R R R R R % L L L # 5 5 5 1 2 1 O > 1 s a a O # # # R R R R R R ",
"R R R R R R + # # R + 5 1 < X X R X < a s O R T R T R R R R R R ",
"R R R R R R R R R R R X o X R R R R     X R R T R R R R R R R R ",
"R R R R R R R R R R R R R R R R R R R R R R R R R R R R R R R R ",
"R R R R R R R R R R R R R T R R R R R R R R R R R R R R R R R R ",
"R R R R R R R R R R R R T R T R R R R R R R R R R R R R R R R R ",
"R R R R R R R R R R R R R T R R R R R R R R R R R R R R R R R R "
};
