/* XPM */
static char *wall1703272244[] = {
/* columns rows colors chars-per-pixel */
"32 32 105 2 ",
"   c #543415",
".  c #573715",
"X  c #583615",
"o  c #553815",
"O  c #593B15",
"+  c #5B3E16",
"@  c #5B4017",
"#  c #5C4317",
"$  c #5D4417",
"%  c #5D4218",
"&  c #5E4419",
"*  c #575112",
"=  c #575212",
"-  c #535715",
";  c #585213",
":  c #545915",
">  c #555915",
",  c #555816",
"<  c #545916",
"1  c #555A17",
"2  c #575C17",
"3  c #585B17",
"4  c #595D17",
"5  c #5C5E17",
"6  c #595E18",
"7  c #5C5F18",
"8  c #614719",
"9  c #624919",
"0  c #654B1A",
"q  c #664C1A",
"w  c #674C1A",
"e  c #674D1A",
"r  c #625819",
"t  c #655B19",
"y  c #665C19",
"u  c #675D1A",
"i  c #685E1A",
"p  c #5D6018",
"a  c #606318",
"s  c #626418",
"d  c #676A1A",
"f  c #68691B",
"g  c #686B1A",
"h  c #6A6D1B",
"j  c #6B6E1B",
"k  c #6C6F1B",
"l  c #6C6D1D",
"z  c #766916",
"x  c #776916",
"c  c #6D701B",
"v  c #6E711B",
"b  c #70711B",
"n  c #72751B",
"m  c #70721C",
"M  c #74761D",
"N  c #75771D",
"B  c #7E731D",
"V  c #7F731D",
"C  c #78771F",
"Z  c #7F741E",
"A  c #77781E",
"S  c #6F6F21",
"D  c #6F7021",
"F  c #707021",
"G  c #777721",
"H  c #767522",
"J  c #777622",
"K  c #787722",
"L  c #7A7922",
"P  c #7D7C22",
"I  c #7F7E22",
"U  c #7B7B25",
"Y  c #797928",
"T  c #7B7A28",
"R  c #7C7A29",
"E  c #64604B",
"W  c #6C6852",
"Q  c #7C7B6E",
"!  c #80741E",
"~  c #807F23",
"^  c #807F72",
"/  c #838123",
"(  c #838223",
")  c #838224",
"_  c #848324",
"`  c #878429",
"'  c #87842D",
"]  c #888529",
"[  c #89872C",
"{  c #8A872D",
"}  c #88842E",
"|  c #888331",
" . c #888431",
".. c #8A8532",
"X. c #8C8733",
"o. c #8D8833",
"O. c #8E8833",
"+. c #8F8934",
"@. c #848279",
"#. c #878679",
"$. c #87857C",
"%. c #87867D",
"&. c #89877F",
"*. c #8E8C83",
"=. c #939189",
/* pixels */
"n n n n n n n n M n n n n n n n n n n n M n n n n n n n n n n n ",
"n n #.#.#.#.#.#.#.#.#.#.#.#.n n n n Q Q Q Q Q Q Q Q Q Q Q Q n n ",
"n *.#.#.#.#.#.#.#.#.#.#.#.#.*.n n @.Q Q Q Q Q Q Q Q Q Q Q Q @.n ",
"n *.#.#.#.#.#.#.#.#.#.#.#.#.0 0 0 @.Q Q Q Q Q Q Q Q Q Q Q Q @.n ",
"n *.#.#.#.#.#.#.#.#.#.#.#.q o.....0 Q Q Q Q Q Q Q Q Q Q Q Q @.n ",
"n *.#.#.#.#.#.#.#.e w e #.q o.o.o.0 Q q 8 Q Q Q Q Q Q Q Q Q @.n ",
"n *.#.#.#.#.#.#.e o.o.o.e _ o.o.~ / 0 G J 8 Q Q Q Q Q Q Q Q @.n ",
"n *.#.#.#.#.#.#.e +.o.o._ _ _ _ _ / J J G J 8 Q Q Q Q Q Q Q @.n ",
"n *.#.#.#.0 q q / _ _ _ _ _ _ _ / / J J J J 9 Q Q Q Q Q Q Q @.n ",
"n *.#.#.q o.X.o.o.} ' A _ +.o.o._ / / L J y t 8 8 & Q Q Q Q @.n ",
"n *.#.#.0 ..o.o.o.` { A M o.+.o.o._ _ M i y y v h l & Q Q Q @.n ",
"n *.#.#.#.q o.o.] ` M M A A +.o.o./ A M F M y l l l & Q Q Q @.n ",
"n *.#.#.#.#.q / ] z z { { A M o.o.L M M / I I t l & Q Q Q Q @.n ",
"n *.#.#.0 0 / / / z _ [ { [ A M G A A o.X...I v 9 Q Q Q Q Q @.n ",
"n W =.9 ' } ..o./ ( _ } { { Z Z ! M A X.X...b k h 8 & &.&.*.E n ",
"n n W 9 ....X.X./ / o.o.( ! Z Z ! X.X.....b v k k h h & E E n n ",
"n n n 8 ....o.m M o.o.X./ / / B X.X.X.~ I I I h h h h , % n n n ",
"n n Q @.9 L L m v X.X.h / / / / X.....~ I I P h h c 1 1 & @.n n ",
"n #.@.$ L U U ......h g ..o.../ ~ ~ ( ~ | ..I h t r < & Q @.#.n ",
"M #.& d J L L ......d g ....o.b ~ ~ k } ..| h c , < & Q @.Q #.n ",
"n &.9 d f f h ....c h d ....v v k k k | | k h h - < < $ Q @.#.n ",
"n #.% S F f s p c c v c v v t v b k k 3 3 k c , < < < , $ Q #.n ",
"M #.% D F g s h c h c h v h p 4 k k k ; * , , , 4 4 4 4 # @.#.M ",
"v #.@.% & p s U T T p c v 4 4 4 k k * * * , , , 4 5 4 & Q Q $.n ",
"n &.@.Q @.$ L U A I p r r 4 4 , t = = = s s > , p 4 @ Q @.Q #.n ",
"M #.Q @.Q % T U A + p 4 4 2 4 4 o > > s s s O @ + + @.Q Q @.#.n ",
"n $.@.Q Q @.+ + # Q O > 4 ,   o n   > s s O @.Q Q @.Q @.@.Q #.n ",
"n $.Q @.@.Q @.Q @.Q @.O . . #.n n #.    o Q Q @.@.Q @.Q Q @.#.n ",
"v #.@.@.Q @.Q @.Q @.Q @.Q @.#.n n #.@.Q @.Q @.Q Q @.Q @.@.Q #.n ",
"n #.Q @.@.Q @.Q @.@.@.Q @.@.#.n n #.Q @.#.#.Q @.@.Q @.#.Q @.#.n ",
"n E *.*.*.$.$.*.*.*.*.&.&.&.E n n E &.*.&.&.&.&.#.&.*.*.&.&.E n ",
"n n E E E E E E E E E E E E n n n N E E E E W E E E E E E E n n "
};
