/* XPM */
static char *floor1703272024[] = {
/* columns rows colors chars-per-pixel */
"32 32 14 1 ",
"  c #72751B",
". c #605C48",
"X c #64604B",
"o c #6C6852",
"O c #7C7B6E",
"+ c #807F72",
"@ c #848377",
"# c #848279",
"$ c #878679",
"% c #87857C",
"& c #89877F",
"* c #8D8B83",
"= c #8E8C83",
"- c #939189",
/* pixels */
"                                ",
"  $$$$$$$$$$$$    OOOOOOOOOOOO  ",
" =$$$$$$$$$$$$=  #OOOOOOOOOOOO# ",
" =$$$$$$$$$$$$=  #OOOOOOOOOOOO# ",
" =$$$$$$$$$$$$=  #OOOOOOOOOOOO# ",
" =$$$$$$$$$$$$=  #OOOOOOOOOOOO# ",
" =$$$$$$$$$$$$=  #OOOOOOOOOOOO# ",
" =$$$$$$$$$$$$=  #OOOOOOOOOOOO# ",
" =$$$$$$$$$$$$=  #OOOOOOOOOOOO# ",
" =$$$$$$$$$$$$=  #OOOOOOOOOOOO# ",
" =$$$$$$$$$$$$=  #OOOOOOOOOOOO# ",
" =$$$$$$$$$$$$=  #OOOOOOOOOOOO# ",
" =$$$$$$$$$$$$=  #OOOOOOOOOOOO# ",
" =$$$$$$$$$$$$=  #OOOOOOOOOOOO# ",
" o------------o  .&&&&&&&&&&&*X ",
"  oooooooooooo    X......XXXXX  ",
"                                ",
"  ++++++++++++    ++O@@OO@O@@O  ",
" &++++++++++++$  #++@O@O@O@O@O@ ",
" %++++++++++++%  $++O@O@O@O@O@$ ",
" %++++++++++++%  %@O@O@O@O@O@O$ ",
" &++++++++++++&  %O@O@O@O@O@O@$ ",
" %++++++++++++%  %@O@O@O@O@O@O$ ",
" &++++++++++++&  %O@O@O@O@O@O@$ ",
" &++++++++++++&  $++++++@O@O@O$ ",
" %++++++++++++$  &++++++O@O@O@$ ",
" &++++++++++++&  &++++++@O@O++$ ",
" $++++++++++++&  &++++++O@O@++$ ",
" %++++++++++++&  &++++++++++++$ ",
" *++++++++++++&  $++++++++++++$ ",
" .====**====**X  X**********==. ",
"  XXXX..XXXXX.    X.XXXXXXXXXX  "
};
