/* XPM */
static char *gate_01701855013[] = {
/* columns rows colors chars-per-pixel */
"32 32 138 2 ",
"   c black",
".  c #020101",
"X  c #040404",
"o  c #060505",
"O  c #040604",
"+  c #080706",
"@  c #070807",
"#  c #0A0807",
"$  c #0B0807",
"%  c #080909",
"&  c gray4",
"*  c #0C0A08",
"=  c #0E0B09",
"-  c #0D0B0C",
";  c #0C0C0C",
":  c #100C09",
">  c #130D0A",
",  c #100F0E",
"<  c #110E0F",
"1  c #130F0E",
"2  c #14100D",
"3  c #15100D",
"4  c #141211",
"5  c #141112",
"6  c #151313",
"7  c #161413",
"8  c #161314",
"9  c #151414",
"0  c #181310",
"q  c #1B1716",
"w  c #1B1816",
"e  c #1C1817",
"r  c #1F1A17",
"t  c #1B1A1A",
"y  c #1C1818",
"u  c #1F1A18",
"i  c #201B18",
"p  c #231E1A",
"a  c #231E1B",
"s  c #241D1A",
"d  c #1C221C",
"f  c #27201C",
"g  c #28211D",
"h  c #2A221E",
"j  c #252725",
"k  c #2C2420",
"l  c #2E2621",
"z  c #2F2621",
"x  c #2B2827",
"c  c gray16",
"v  c #2F2D2C",
"b  c #332924",
"n  c #332A25",
"m  c #352B26",
"M  c #372D28",
"N  c #302F2F",
"B  c #392F29",
"V  c #3B302A",
"C  c #3B312B",
"Z  c #3D312B",
"A  c #3F332C",
"S  c #323030",
"D  c #323232",
"F  c #333232",
"G  c #343333",
"H  c #3A3335",
"J  c #3B3739",
"K  c gray22",
"L  c #3C3A3A",
"P  c #413D3D",
"I  c #403F3F",
"U  c #434343",
"Y  c #464646",
"T  c #4F4D4D",
"R  c #4F4E4D",
"E  c #504F51",
"W  c #525151",
"Q  c #545352",
"!  c #5C5556",
"~  c gray35",
"^  c #5B5A5A",
"/  c #5B5B5B",
"(  c #5C5B5B",
")  c gray36",
"_  c #626260",
"`  c #676767",
"'  c #686363",
"]  c #6D6164",
"[  c #6C6B6B",
"{  c #6F6F6F",
"}  c gray45",
"|  c gray46",
" . c #767676",
".. c #777777",
"X. c #797476",
"o. c #787877",
"O. c gray47",
"+. c #797979",
"@. c #7E7E7E",
"#. c #818181",
"$. c #838383",
"%. c #848484",
"&. c #888888",
"*. c #8B8B8B",
"=. c gray55",
"-. c #918E8F",
";. c #929091",
":. c #969695",
">. c #989796",
",. c #9B9B9B",
"<. c gray61",
"1. c #9D9D9D",
"2. c #A0A0A0",
"3. c gray63",
"4. c gray64",
"5. c #A4A4A4",
"6. c #A5A5A5",
"7. c #AAAAAA",
"8. c #AEAEAE",
"9. c gray69",
"0. c #B2B2B2",
"q. c gray70",
"w. c #B6B6B6",
"e. c #B7B7B7",
"r. c #BBBBBB",
"t. c #BCBCBC",
"y. c #BFBFBE",
"u. c gray75",
"i. c #C3C3C3",
"p. c #C5C5C5",
"a. c #C8C8C8",
"s. c gray79",
"d. c #CECECE",
"f. c #D0D0D0",
"g. c gray82",
"h. c #D2D2D2",
"j. c LightGray",
"k. c gray83",
/* pixels */
"; ; ; ; ; ; ; ; ; ; ; - ; ; & ; ; ; ; ; ; ; ; ; ; ; ; ; ; ; ; ; ",
"; ; r m m m m b ; l m m m b m m m b m b b b l ; b m m m b u ; ; ",
"; ; p Z b l l h ; p l l l l l l l l l l l l f = l l l l C p ; ; ",
"; ; p B 4 ; & o & ; ; = X o ; ; ; o o ; ; - & o % ; ; 4 V p ; ; ",
"; ; p Z =   _ :.] H   P >.X.!     $.$.' d   W :.[ J   = C p & ; ",
"; - i Z =   o.u.-.T   Q u.,.$.    5.8.&.j   [ u.;.E   = V p ; ; ",
"; ; i B =   $.h.5.~   ~ k.7.*.    e.t.,.c   { p.4.~   = B i ; ; ",
"; ; p B +   $.h.5.~   ~ k.7.*.    e.i.,.c   ( 4.3.~   = B p ; ; ",
"; ; ; ;     $.h.5.~   ~ k.7.*.    e.r.,.c   | f.4.~     , - ; ; ",
"; ; p m &   %.j.u.`   ~ k.7.*.    e.i.,.j    .h.4.~   & m i ; ; ",
"; ; p B =   *.h.i.[   ~ k.7.*.    e.d.u.v    .f.4.~   = V p ; ; ",
"; - p V =   %.h.3.~   ~ k.7.*.    e.a.e.v    .h.4.~   > V p ; ; ",
"; ; p V ;   =.h.3.~ = ~ k.7.*.  4 e.r.2.J ; ..h.4.~ = y V p ; ; ",
"; ; p V :   ,.h.3.~ & ( k.7.=.- + e.u.3.U - O.h.u.[ - 4 V p ; ; ",
"; ; p V =   ,.h.3.~ = ( k.7.=.4 o e.u.4.U -  .h.h..., , V p ; ; ",
"; ; p V =   *.h.3.~ & ( k.8.@.4 4 e.u.3.Y 8 ..h.h...9 u V p ; ; ",
"; ; p V :   $.h.4.~ = ) j.9.=.8 4 w.t.4.Y 9 +.h.3.( 8 y B s ; ; ",
"; ; p V 8   $.h.4.~ - / k.0.=.1 $ w.u.2.P 9 +.h.3.( 4 y C s ; ; ",
"; ; p V r @ $.h.4.) 8 / k.9.=.8   e.u.<.G 8  .h.3.) 9 y B p ; ; ",
"; ; p m w X $.h.4.~ 8 / k.9.=.0   e.i.<.G 4  .h.5.~ 8 u M p ; ; ",
"; ; ; ; < $ %.h.4.) 8 ( j.q.=.8   e.u.,.F 4 X.h.3.) 8 4 ; ; ; ; ",
"; ; 4 b q & %.k.4.) 4 ( j.a.4.1   e.i.<.G 7 +.h.4.) 4 8 l q ; ; ",
"; ; s V q = &.k.4.) 8 ) k.d.8.4   e.r.<.G 9 +.h.4.) 4 u B p ; ; ",
"; ; p V y > &.k.4.) 4 ( k.e.=.4   e.i.,.G 4 +.h.4.~ & w V p ; ; ",
"; ; u V y 7 $.j.4.) 4 ) k.e.=.8 4 e.u.<.F 8 ..h.4.( 8 q B p ; ; ",
"; ; p V w 7 O.j.4.) 0 ~ h.t.=.1 4 q.u.<.v 4 } h.3.( 4 u V p ; ; ",
"; ; p V 7 ; 9 t.<.G - # 7.e._ = , [ t.&.y ; q r.<.G - 0 B i ; ; ",
"; ; u V 7 2 3 T J : , 1 N E , > > > Q c 3 4 > K L 1 3 0 B i ; ; ",
"; ; p Z Z A A A < m C C m P P C B B C P Z Z m ; C C C C C i - - ",
"; ; 7 g h g h g ; a f f s s s a h h s s a l s ; h a k h l 4 ; ; ",
"; ; ; ; ; ; ; ; ; ; ; = : : ; ; ; ; > > ; ; ; ; - - ; ; ; ; ; ; ",
"; ; ; ; ; ; ; ; ; ; ; = = : ; ; ; ; ; = ; ; ; ; ; - ; ; ; ; ; ; "
};
