/* XPM */
static char *gate_31701855014[] = {
/* columns rows colors chars-per-pixel */
"32 32 108 2 ",
"   c #010000",
".  c #030302",
"X  c #050003",
"o  c #060305",
"O  c #040404",
"+  c #040604",
"@  c #060606",
"#  c #070707",
"$  c #070807",
"%  c #0B0807",
"&  c #0A0909",
"*  c #0B0B09",
"=  c #0B0B0B",
"-  c #0D0A08",
";  c #0F0B09",
":  c #0D0B0C",
">  c #0F0B0D",
",  c #0C0C0C",
"<  c #11040B",
"1  c #14060E",
"2  c #100C09",
"3  c #12090E",
"4  c #100E0D",
"5  c #100F0E",
"6  c #130F0E",
"7  c #150F0C",
"8  c #15100C",
"9  c #15100D",
"0  c #130F11",
"q  c #101010",
"w  c #131111",
"e  c #151313",
"r  c #161212",
"t  c #161413",
"y  c #161314",
"u  c #191515",
"i  c #1B1716",
"p  c #1B1816",
"a  c #1C1816",
"s  c #1F1A17",
"d  c #181818",
"f  c gray10",
"g  c #1B1B1B",
"h  c #1C1818",
"j  c #1F1A18",
"k  c #201B18",
"l  c #231E1A",
"z  c #231E1B",
"x  c #241D1A",
"c  c #1C221C",
"v  c #27201C",
"b  c #29211D",
"n  c #29211E",
"m  c #2A221E",
"M  c #252725",
"N  c #2E2621",
"B  c #2A2A2A",
"V  c #332924",
"C  c #332A25",
"Z  c #342B25",
"A  c #352B26",
"S  c #372D28",
"D  c #392F29",
"F  c #3B302A",
"G  c #3B312B",
"H  c #3C312B",
"J  c #3D312B",
"K  c #3F332C",
"L  c #3A3335",
"P  c #3B3739",
"I  c #413D3D",
"U  c gray29",
"Y  c #4B4B4B",
"T  c #4F4D4D",
"R  c #505051",
"E  c #535353",
"W  c gray34",
"Q  c #5C5556",
"!  c gray35",
"~  c #626260",
"^  c #656565",
"/  c #686363",
"(  c #6D6164",
")  c gray42",
"_  c #6F696B",
"`  c #777776",
"'  c #797476",
"]  c #7B7B7B",
"[  c #828181",
"{  c #868383",
"}  c #898989",
"|  c #928E8F",
" . c #929091",
".. c gray58",
"X. c #969695",
"o. c #989796",
"O. c gray60",
"+. c #9B9B9B",
"@. c gray64",
"#. c #A6A5A5",
"$. c #AAAAAA",
"%. c gray67",
"&. c #AFAFAF",
"*. c #B4B4B4",
"=. c gray75",
"-. c #C0BFBF",
";. c #C2C2C1",
":. c gray82",
/* pixels */
", , , , , , , , , , , , , , , , , , , , , , , , , , = , , , , , ",
", , s A A A A V , N V V V A Z Z Z Z V S V V N , C V V S V j , , ",
", , l J V N N m , m N N N N N N N N N N N N v , N N N V G z , , ",
", , l D w , & @ & & : : $ @ & , = @ @ & , , & O $ , , w F z , , ",
", , l F ,   ~ X.( L   I O.' Q     [ { / c   E X._ P   ; F l , , ",
", & l F -   ` -. .Y   E ;.@.[     @.&.} M   ) =. .R   & F l , , ",
", , k F &   ) :.@.!   U :.*.}     $.=.+.B   ^ :.@.!   ; F j , , ",
", , l D -   @ *.X.d     O.*.Y     ! *.] &   # %.o.d   $ F l , , ",
", , , 5       d w       & d         g $       w q       , , , , ",
", , s A &                                             - A l , , ",
", , l F -                                             2 F l , , ",
", , l F 2             O @       O           o o       , F l , , ",
", , l G ,           & t e ,     e :       , e y :   - i F l , , ",
", , l F -           & t t t 5 : & @       , e e e : , e F z , , ",
", , l F 2           & t t e e e @ X       3 e e e e q 9 F l , , ",
", , l F -           & t e e e e e w X & e y e e e e t d F l , , ",
", ; l F ,           % e e e e e e < 1 e e y y y y y e h D x : : ",
", * l F e       @ & 5 e e e e e -   3 r r r y y y y e h D x , , ",
", , l F s $     e e e e e e e e     - e r r e e y y y i J x , , ",
", , l V p @     e e e e e e r r     2 e y e e e y y i i D k , , ",
", , , q w &     e r i e e e r e     - e e e r i e e e e 5 & , , ",
", , p N i &   $ e e r e e r i e     & e e e e e e e e i N i , , ",
", , l D i -   - r r e e e r e e @   & e e i e e e 0 e i D l , , ",
", * l D s ,   e r y r e e i y e     0 e e e e r 5   & p F l , , ",
", , l D p t e e e e y e i e r e e i r e r r e e e e e s D l & = ",
", , l F i e t e e i 6 r e e r r 0 e e e r e e i e e e i D x , = ",
", , l F i , , , , , , , - , 5 2 - , ; 5 : , , , - 2 3 i D l , , ",
", , j F 9 5 9 9 X 2 6 9 9 6 7 7 6 9 7 7 9 9 2 X 6 6 9 9 D l , , ",
", = l J I I F F 0 V G J J D D D J J J J I D V 5 D J G J G l & , ",
", = e m x x m m : z N z N z N N m m m m z N x - z m m m m e , , ",
", , , , 2 - - 2 , , , , = : , , , , = = , , , , , , , , , , , , ",
", , = = : - - 2 , , , = : = , , , , , : , , , , , , , , , , , , "
};
