/* XPM */
static char *_dbc16351e8f4ac8efb93409bfd881a45241kJ38flvEFTkr[] = {
/* columns rows colors chars-per-pixel */
"32 32 20 1 ",
"  c black",
". c #72751B",
"X c #333941",
"o c #605C48",
"O c #64604B",
"+ c #6C6852",
"@ c #485A60",
"# c #7C7B6E",
"$ c #807F72",
"% c #848377",
"& c #848279",
"* c #878679",
"= c #87857C",
"- c #89877F",
"; c #6F909B",
": c #8D8B83",
"> c #8E8C83",
", c #939189",
"< c #A0BDC8",
"1 c white",
/* pixels */
"................................",
"..************....############..",
".>************>..&############&.",
".>************>..&############&.",
".>************>..&############&.",
".>************>..&############&.",
".>************>..& X#X #######&.",
".>************>..& @X X#######&.",
".>************>..& ;@@XX######&.",
".>************>..& X;@@@X#####&.",
".>************>.X  @X@;;@X####&.",
".>************XX@X  @;XX; ####&.",
".>******XX   X@;;@X@@@1 <;  ##&.",
".>*****X@@@;;;;;@@  X;;;<<; ##&.",
".+,,,,X;;@@@;@;@@@@XXX@;;@ --:O.",
"..++++@<@@@@@@@@@@@XX  XX OOOO..",
".....X<X@;@XX@@XX@@X X..........",
"..$$$X; @;; XXX X@;@X%%##%#%%#..",
".-$$$XXX;;X      X;@ #%#%#%#%#%.",
".=$$$  @;@  X =   @;  #%#%#%#%*.",
".=$$$$X;<X$$ X=X  X;<@%#%#%#%#*.",
".-$$$$$ @<X$$$-..= <@X#%#%#%#%*.",
".=$$$$$  XX$$$=..=   #%#%#%#%#*.",
".-$$$$$$$$$$$$-..=#%#%#%#%#%#%*.",
".-$$$$$$$$$$$$-..*$$$$$$%#%#%#*.",
".=$$$$$$$$$$$$*..-$$$$$$#%#%#%*.",
".-$$$$$$$$$$$$-..-$$$$$$%#%#$$*.",
".*$$$$$$$$$$$$-..-$$$$$$#%#%$$*.",
".=$$$$$$$$$$$$-..-$$$$$$$$$$$$*.",
".:$$$$$$$$$$$$-..*$$$$$$$$$$$$*.",
".o>>>>::>>>>::O..O::::::::::>>o.",
"..OOOOooOOOOOo....OoOOOOOOOOOO.."
};
