/* XPM */
static char *cat_left1703272861[] = {
/* columns rows colors chars-per-pixel */
"32 32 29 1 ",
"  c #72751B",
". c #4F422F",
"X c #64604B",
"o c #6C6852",
"O c #7C7B6E",
"+ c #8E6213",
"@ c #A5731D",
"# c #B27814",
"$ c #9F7A20",
"% c #807F72",
"& c #CA8815",
"* c #C89522",
"= c #E2A923",
"- c #848279",
"; c #878679",
": c #87857C",
"> c #87867D",
", c #89877F",
"< c #BA75BA",
"1 c #3B8FB3",
"2 c #54CCFF",
"3 c #8D8B83",
"4 c #8E8C83",
"5 c #84848C",
"6 c #939189",
"7 c #EB94EB",
"8 c #D3D2E0",
"9 c #E8E7EF",
"0 c white",
/* pixels */
"                                ",
"  ;;;;;;;;;;;;    OOOOOOOOOOOO  ",
" 4;;;;;;;;;;;;4  -OOOOOOOOOOOO- ",
" 4;;;;;;;;;;;;4  -OOOOOOOOOOOO- ",
" 4;;;;;;;;;;.;4 ..OOOOOOOOOOOO- ",
" 4;;;;;;;;;.$.4.*$.OOOOOOOOOOO- ",
" 4;;;;;;;;;.$$..=*$.OOOOOOOOOO- ",
" 4;;;;;;;;;.<$$.7=*$.OOOOOOOOO- ",
" 4;;;;;;;;;.<<.*77=*..OOOOOOOO- ",
" 4;;;;;;;;.+*&=&*7=&#+.OOOOOOO- ",
" 4;;;;;;;.#=&=&=======*.OOOOOO- ",
" 4;;;;;;..=&==.===&&&&&+.OOOOO- ",
" 4;;;;;;.0====0.=======*.OOOOO- ",
" 4;;;;;;.1=0==11==&&@.&#.OOOOO- ",
" o666666.2000=22=======*.,,,,3X ",
"  oooooo.89.00===&&&@.&+.XXXXX  ",
"         .58500000====*.        ",
"  ;OO;OO-O..89999999$..%%%%%%%  ",
" ;;OO;O;O-O-.........%%%%%%%O-; ",
" ;O;OO-O-O-O.88900=#$.%%%%%%-O: ",
" ;O-OO;;O-O..80000$=&*.%%%%%O%; ",
" ;-O;OOO-O.8.80009$.=09.%%%%-%; ",
" ;O-O-O-O-.8.80009*.909.%%%%%%: ",
" ;;O-O-O-O-...809*#+.9.%%%%%%%: ",
" ;O;O-O-%%%%%.$8***$..%%%..%%%: ",
" ;-O-O;O%%%%%%.*##+.+$...*+.%%: ",
" ;O-O;OO%%%%%.99**...*#*+$.%-O: ",
" ;-OOOO;%%%%%.888.%%%.....%%O-: ",
" ;-;;OO;%%%%%-...;O-%%%%%%%%-O; ",
" ;O;O;OO%%%%%O;  ;-O%%%%%%%%O-; ",
" X,,,,;;333343X  X443333434444X ",
"  XXoXXoXXXXXX    XXXXXXXXXXXX  "
};
