/* XPM */
static char *cat_down1703272861[] = {
/* columns rows colors chars-per-pixel */
"32 32 27 1 ",
"  c #72751B",
". c #4F422F",
"X c #64604B",
"o c #6C6852",
"O c #7C7B6E",
"+ c #8E6213",
"@ c #B27814",
"# c #9F7A20",
"$ c #807F72",
"% c #CA8815",
"& c #C89522",
"* c #E2A923",
"= c #848279",
"- c #878679",
"; c #87857C",
": c #87867D",
"> c #89877F",
", c #3B8FB3",
"< c #54CCFF",
"1 c #8D8B83",
"2 c #8E8C83",
"3 c #84848C",
"4 c #939189",
"5 c #EB94EB",
"6 c #D3D2E0",
"7 c #E8E7EF",
"8 c white",
/* pixels */
"                                ",
"  ------------    OOOOOOOOOOOO  ",
" 2------------2  =OOOOOOOOOOOO= ",
" 2------------2  =OOOOOOOOOOOO= ",
" 2----------.-2  =OO.OOOOOOOOO= ",
" 2---------.&.2  =O.&.OOOOOOOO= ",
" 2--------.#*#.  =.#*#.OOOOOOO= ",
" 2--------.&5*.  =.*5&.OOOOOOO= ",
" 2-------.#55*#...#*55#.OOOOOO= ",
" 2-------.&5&*@&@&@*&5&.OOOOOO= ",
" 2------.#&***%*%*%***&#.OOOOO= ",
" 2------.@%**.**%**.**%@.OOOOO= ",
" 2------.&**.8*****8.**&.OOOOO= ",
" 2-----..@%*,,**8**,,*%@..OOOO= ",
" o444444.&**<<*888*<<**&.>>>>1X ",
"  ooooo..+@%**88.88**%@+..XXXX  ",
"         .#78883638887#.        ",
"  $$$$$$O=..667777766..$$$$$$$  ",
" -$$$$$$=OO...........$$$$$$O=- ",
" -$$$$$$O=.&*7666667*@.$$$$$=O; ",
" -=O$$$$=.&%%8888888&#6.$$$$O$- ",
" -O=$$$$O.88#8888888.66.$$$$=$- ",
" -=O$$$$=.88.8888888...$$$$$$$; ",
" -O=$$$$$O...%88888&....$$$$$$; ",
" -$$$$$$O=O=.+#666#@.#+#..$$$$; ",
" -$$$$$$=O=OO.6...%*...+#+.$$$; ",
" --$$$$$O=O==O.. .88.$$...$$=O; ",
" -O-$$$$=O=OO=-  .77.$$$$$$$O=; ",
" -$-$$$$O=O=O=-  -..$$$$$$$$=O- ",
" -$O$$$$=O=O=O;  -=O$$$$$$$$O=- ",
" X2211>1111122X  X221111212222X ",
"  XXXXXXXXXXXX    XXXXXXXXXXXX  "
};
