/* XPM */
static char *cat_up1703272862[] = {
/* columns rows colors chars-per-pixel */
"32 32 24 1 ",
"  c #72751B",
". c #4F422F",
"X c #605C48",
"o c #64604B",
"O c #6C6852",
"+ c #7C7B6E",
"@ c #8E6213",
"# c #B27814",
"$ c #9F7A20",
"% c #807F72",
"& c #CA8815",
"* c #C89522",
"= c #E2A923",
"- c #848279",
"; c #878679",
": c #87857C",
"> c #87867D",
", c #89877F",
"< c #8D8B83",
"1 c #8E8C83",
"2 c #939189",
"3 c #D3D2E0",
"4 c #E8E7EF",
"5 c white",
/* pixels */
"                                ",
"  ;;;;;;;;;;;;    ++++++++++++  ",
" 1;;;;;;;;;;;;1  -++++++++++++- ",
" 1;;;;;;;;;;.;1  -++.+++++++++- ",
" 1;;;;;;;;;.*.1  -+.*.++++++++- ",
" 1;;;;;;;;.$=$.  -.$=$.+++++++- ",
" 1;;;;;;;;.*==.  -.==*.+++++++- ",
" 1;;;;;;;.$===@...@===$.++++++- ",
" 1;;;;;;;.#&==#*#*#==&#.++++++- ",
" 1;;;;;;.$*===&=&=&===*$.+++++- ",
" 1;;;;;;.#&&&=&=&=&=&&&#.+++++- ",
" 1;;;;;;.*====&=&=&====*.+++++- ",
" 1;;;;;..#&&====&====&&#..++++- ",
" 1;;;;;;.**=&&=====&&=**.+++++- ",
" O22222..@#*=========*#@..,,,<o ",
"  OOOOOOO.$####***####$.Xooooo  ",
"          ..$$*****$$..         ",
"  %%%%%%%%%...........%%%%%%%%  ",
" ;%%%%%%%%.#&#&&&&&#&*.%%%%%+-; ",
" ;%%%%%%%.&=*=======$*3.%%%%-+: ",
" :-+%%%%.55#.&&&&&&&.33.%%%%+%; ",
" ,+-%%%%.55..=======...%%%%%-%; ",
" ;-+%%%%%..+.#&&&&&#.%%%%%%%%%: ",
" ;+-%%%%%-+-.*.=*.$*.%%%%%%%%%: ",
" ;%%%%%%%%%%%.$&@.#&.%%%%%%%%%: ",
" ,%%%%%......=&$..55.%%%%%%%%%: ",
" ;-%%%.@*&=&=#.. .44.%%%%%%%-+: ",
" ,+-%%%.......:  ;..%%%%%%%%+-: ",
" ;+-%%%%%%%%%%:  :-+%%%%%%%%-+; ",
" ;-+%%%%-+%%%%:  ;+-%%%%%%%%+-; ",
" o<<<<11<<<<11o  o11<<<<1<1111o ",
"  oooooooooooo    oooooooooooo  "
};
